{"title":"Whose Line is it Anyway S12E09 Tamera Mowry-Housley x265 The.Ash","uid":15427564,"size":167606343,"categoryP":"video","categoryS":"tv_shows","magnet":"?xt=urn:btih:c2d6682be8f7ff2bd4ac790eb4b06e9d8e0c8203&amp;dn=Whose+Line+is+it+Anyway+S12E09+Tamera+Mowry-Housley+x265+The.Ash&amp;tr=udp%3A%2F%2Ftracker.leechers-paradise.org%3A6969&amp;tr=udp%3A%2F%2Fzer0day.ch%3A1337&amp;tr=udp%3A%2F%2Fopen.demonii.com%3A1337&amp;tr=udp%3A%2F%2Ftracker.coppersurfer.tk%3A6969&amp;tr=udp%3A%2F%2Fexodus.desync.com%3A6969","seeders":1,"leechers":0,"uploader":"The.Ash","files":1,"time":1469682721,"description":"Whose Line is it Anyway S12E09 Tamera Mowry-Housley x265 The.Ash\r\nWhose Line Is It Anyway US S12E09 720p 10bit 60fps HDTV 2CH HEVC x265 The.Ash\r\n \nhttp://extraimago.com/images/2016/07/27/WhoseLineisitAnyway-S12E09-TameraMowry-Housley-x265The.Ash.mkv_snapshot_06.31_2016.07.27_15.24.28.jpg\r\n \nhttp://extraimago.com/images/2016/07/27/WhoseLineisitAnyway-S12E09-TameraMowry-Housley-x265The.Ash.mkv_snapshot_17.51_2016.07.27_15.24.38.jpg\r\n\r\n[code]Format                      : Matroska\r\nFormat version              : Version 4 / Version 2\r\nFile size                   : 160 MiB\r\nDuration                    : 20mn 48s\r\nOverall bit rate            : 1 074 Kbps\r\nEncoded date                : UTC 2016-07-27 07:47:27\r\nWriting application         : mkvmerge v9.2.0 ('Photograph') 64bit\r\nWriting library             : libebml v1.3.3 + libmatroska v1.4.4\r\n\r\nVideo\r\nID                          : 1\r\nFormat                      : HEVC\r\nFormat/Info                 : High Efficiency Video Coding\r\nFormat profile              : Main   @Main\r\nCodec ID                    : V_MPEGH/ISO/HEVC\r\nDuration                    : 20mn 48s\r\nBit rate                    : 1 004 Kbps\r\nWidth                       : 1 280 pixels\r\nHeight                      : 720 pixels\r\nDisplay aspect ratio        : 16:9\r\nFrame rate mode             : Constant\r\nFrame rate                  : 59.940 (60000/1001) fps\r\nColor space                 : YUV\r\nChroma subsampling          : 4:2:0\r\nBit depth                   : 10 bits\r\nBits/(Pixel*Frame)          : 0.018\r\nStream size                 : 149 MiB (94%)\r\nWriting library             : x265 1.9+200-6098ba3e0cf16b11:[Windows][GCC 5.3.0][64 bit] 10bit\r\nEncoding settings           : wpp / ctu=64 / min-cu-size=8 / max-tu-size=32 / tu-intra-depth=1 / tu-inter-depth=1 / me=1 / subme=2 / merange=57 / no-rect / no-amp / max-merge=2 / temporal-mvp / no-early-skip / recursion-skip / rdpenalty=0 / no-tskip / no-tskip-fast / strong-intra-smoothing / no-lossless / no-cu-lossless / no-constrained-intra / no-fast-intra / open-gop / no-temporal-layers / interlace=0 / keyint=250 / min-keyint=25 / scenecut=40 / rc-lookahead=20 / lookahead-slices=4 / bframes=4 / bframe-bias=0 / b-adapt=2 / ref=3 / limit-refs=3 / no-limit-modes / weightp / no-weightb / aq-mode=1 / qg-size=32 / aq-strength=1.00 / cbqpoffs=0 / crqpoffs=0 / rd=3 / psy-rd=2.00 / rdoq-level=0 / psy-rdoq=0.00 / no-rd-refine / signhide / deblock=0:0 / sao / no-sao-non-deblock / b-pyramid / cutree / no-intra-refresh / rc=2 / pass / bitrate=1002 / qcomp=0.60 / qpmin=0 / qpmax=51 / qpstep=4 / cplxblur=20.0 / qblur=0.5 / ipratio=1.40 / pbratio=1.30\r\nDefault                     : Yes\r\nForced                      : No\r\n\r\nAudio\r\nID                          : 2\r\nFormat                      : AAC\r\nFormat/Info                 : Advanced Audio Codec\r\nFormat profile              : HE-AAC / LC\r\nCodec ID                    : A_AAC\r\nDuration                    : 20mn 48s\r\nBit rate                    : 66.2 Kbps\r\nChannel(s)                  : 2 channels\r\nChannel positions           : Front: L R\r\nSampling rate               : 48.0 KHz / 24.0 KHz\r\nFrame rate                  : 23.438 fps (1024 spf)\r\nCompression mode            : Lossy\r\nDelay relative to video     : 40ms\r\nStream size                 : 9.80 MiB (6%)\r\nLanguage                    : English\r\nDefault                     : No\r\nForced                      : No[/code]\r\n\r\nThis is an x265/HEVC torrent, it needs a decent CPU for it to work properly without lags, and an updated media player, i recommend latest klite codec pack or latest VLC","torrent":{"xt":"urn:btih:c2d6682be8f7ff2bd4ac790eb4b06e9d8e0c8203","amp;dn":"Whose+Line+is+it+Anyway+S12E09+Tamera+Mowry-Housley+x265+The.Ash","amp;tr":["udp%3A%2F%2Ftracker.leechers-paradise.org%3A6969","udp%3A%2F%2Fzer0day.ch%3A1337","udp%3A%2F%2Fopen.demonii.com%3A1337","udp%3A%2F%2Ftracker.coppersurfer.tk%3A6969","udp%3A%2F%2Fexodus.desync.com%3A6969"],"infoHash":"c2d6682be8f7ff2bd4ac790eb4b06e9d8e0c8203","infoHashBuffer":{"type":"Buffer","data":[194,214,104,43,232,247,255,43,212,172,121,14,180,176,110,157,142,12,130,3]},"announce":[],"urlList":[]}}